<?xml version="1.0" encoding="UTF-8"?>
<svg version="1.1" xmlns="http://www.w3.org/2000/svg" width="626" height="626">
<path d="M0 0 C206.58 0 413.16 0 626 0 C626 206.58 626 413.16 626 626 C419.42 626 212.84 626 0 626 C0 419.42 0 212.84 0 0 Z " fill="#FEFEFE" transform="translate(0,0)"/>
<path d="M0 0 C0.95390625 0.226875 1.9078125 0.45375 2.890625 0.6875 C33.88745134 8.89857982 61.7584551 31.19361965 77.9921875 58.47265625 C78.66505093 59.64638527 79.33425541 60.82221855 80 62 C80.51095215 62.90081299 80.51095215 62.90081299 81.03222656 63.81982422 C96.11041211 90.89105386 101.04179965 125.11260799 93.41015625 155.3359375 C92.69862755 157.60104071 91.86008326 159.78685892 91 162 C90.60039062 163.15628906 90.20078125 164.31257812 89.7890625 165.50390625 C84.64246106 180.22370067 77.68613919 193.73345792 68 206 C67.34128906 206.87269531 66.68257812 207.74539063 66.00390625 208.64453125 C61.78477987 214.13021798 57.42663241 218.71804787 52 223 C51.4534375 223.44102051 50.906875 223.88204102 50.34375 224.33642578 C40.79289923 232.00290583 31.16893169 237.99970863 20 243 C18.99710938 243.46921875 17.99421875 243.9384375 16.9609375 244.421875 C-11.66793661 257.19839733 -46.48574262 258.28215204 -76 248 C-77.03108887 247.64760254 -77.03108887 247.64760254 -78.08300781 247.28808594 C-92.85027792 242.05594846 -106.24698848 233.20821072 -118 223 C-118.75667969 222.46246094 -119.51335937 221.92492187 -120.29296875 221.37109375 C-120.85628906 220.91863281 -121.41960937 220.46617187 -122 220 C-122 219.34 -122 218.68 -122 218 C-122.66 218 -123.32 218 -124 218 C-124 217.34 -124 216.68 -124 216 C-124.66 216 -125.32 216 -126 216 C-126 215.34 -126 214.68 -126 214 C-126.66 214 -127.32 214 -128 214 C-151.84757871 190.20382701 -162.07220235 155.80038669 -162.4375 123 C-162.38519972 111.62178446 -161.04526366 100.95774361 -158 90 C-157.80164551 89.28086426 -157.60329102 88.56172852 -157.39892578 87.82080078 C-152.71873348 71.58347491 -144.36792924 55.52978173 -133 43 C-132.30519531 42.18789062 -131.61039063 41.37578125 -130.89453125 40.5390625 C-98.32115044 3.06526157 -48.13720548 -12.45676932 0 0 Z " fill="#DC4627" transform="translate(282,86)"/>
<path d="M0 0 C7.39646169 5.1989622 12.70752671 11.9867662 14.6953125 20.89453125 C16.00820565 32.77894945 13.28960827 40.87104738 7.06274414 50.71679688 C4.73327248 54.42664997 2.50276971 58.19565318 0.2578125 61.95703125 C-3.18877364 67.72403686 -6.65447596 73.47809578 -10.1640625 79.20703125 C-10.80158447 80.24851318 -11.43910645 81.28999512 -12.09594727 82.36303711 C-13.34390274 84.39925955 -14.59432639 86.43397169 -15.84741211 88.46704102 C-16.41468018 89.39315186 -16.98194824 90.3192627 -17.56640625 91.2734375 C-18.07131592 92.09400635 -18.57622559 92.9145752 -19.09643555 93.76000977 C-20.43504275 95.96537776 -20.43504275 95.96537776 -21.3046875 98.89453125 C-21.9646875 98.89453125 -22.6246875 98.89453125 -23.3046875 98.89453125 C-23.5934375 99.80203125 -23.8821875 100.70953125 -24.1796875 101.64453125 C-25.07000526 104.21656033 -26.01963163 106.50799891 -27.3046875 108.89453125 C-27.9646875 108.89453125 -28.6246875 108.89453125 -29.3046875 108.89453125 C-29.43214355 109.48226318 -29.55959961 110.06999512 -29.69091797 110.67553711 C-30.67225377 114.22341345 -32.60938194 117.28323202 -34.4296875 120.45703125 C-34.83493652 121.16722412 -35.24018555 121.87741699 -35.65771484 122.60913086 C-49.32581001 146.40861417 -49.32581001 146.40861417 -61.3046875 150.89453125 C-71.81745628 153.57864243 -81.95110166 151.82691928 -91.19921875 146.3671875 C-94.60028961 143.98833089 -96.99544907 141.32680357 -99.3046875 137.89453125 C-99.71847656 137.29511719 -100.13226563 136.69570313 -100.55859375 136.078125 C-104.7264982 128.65722196 -104.54067226 119.12506615 -103.3046875 110.89453125 C-101.85160098 106.46062682 -99.80910462 102.8109037 -97.3046875 98.89453125 C-96.35763561 97.33205156 -95.41541768 95.76663733 -94.4765625 94.19921875 C-93.69708252 92.89839355 -93.69708252 92.89839355 -92.90185547 91.57128906 C-90.31163029 87.23022687 -87.74603494 82.87473664 -85.1796875 78.51953125 C-80.91660498 71.29380193 -76.62955572 64.0834457 -72.3046875 56.89453125 C-68.04245587 49.80965775 -63.81866923 42.70309348 -59.6171875 35.58203125 C-59.0718335 34.65962646 -58.52647949 33.73722168 -57.96459961 32.78686523 C-55.53065048 28.67011307 -53.10214854 24.55063684 -50.6953125 20.41796875 C-44.4072915 9.67325174 -38.98865466 1.54179746 -27.1796875 -3.41796875 C-17.25710146 -5.17842756 -8.90240787 -5.06843755 0 0 Z " fill="#E15122" transform="translate(143.3046875,389.10546875)"/>
<path d="M0 0 C2.6875 2.25 2.6875 2.25 5 5 C6.2375 5.99 6.2375 5.99 7.5 7 C10.21381427 9.17105142 12.57150869 11.51368746 15 14 C16.2262558 15.2528557 17.45554839 16.50274464 18.6875 17.75 C19.26886719 18.34296875 19.85023438 18.9359375 20.44921875 19.546875 C21.95513974 21.09641804 21.95513974 21.09641804 24 22 C24 22.66 24 23.32 24 24 C24.66 24 25.32 24 26 24 C26 24.66 26 25.32 26 26 C26.66 26 27.32 26 28 26 C28 26.66 28 27.32 28 28 C28.66 28 29.32 28 30 28 C31.66201383 31.32402766 31.80310128 34.44172802 31 38 C28.89847734 41.11720887 26.26580039 43.53453883 23.5 46.0625 C22.80390625 46.73087891 22.1078125 47.39925781 21.390625 48.08789062 C19.28807292 50.09115552 17.15295196 52.05108917 15 54 C14.27039063 54.66628418 13.54078125 55.33256836 12.7890625 56.01904297 C12.08523438 56.65084473 11.38140625 57.28264648 10.65625 57.93359375 C9.70975586 58.78328735 9.70975586 58.78328735 8.74414062 59.65014648 C7 61 7 61 4 62 C4 62.66 4 63.32 4 64 C3.34 64 2.68 64 2 64 C2 64.66 2 65.32 2 66 C-0.68079156 67.75282525 -1.86888639 68.01311136 -5.125 67.6875 C-8 67 -8 67 -10 66 C-10 65.34 -10 64.68 -10 64 C-10.66 64 -11.32 64 -12 64 C-12.84035608 57.27715134 -12.84035608 57.27715134 -10.6171875 53.8984375 C-9.44908992 52.58875234 -8.2510177 51.30495479 -7.01953125 50.0546875 C-4.52306781 47.51476532 -2.27994953 44.73593943 0 42 C-14.52 42 -29.04 42 -44 42 C-44.33 43.32 -44.66 44.64 -45 46 C-46.64769461 49.17967102 -48.56223608 52.20001548 -50.4375 55.25 C-50.94087891 56.09046875 -51.44425781 56.9309375 -51.96289062 57.796875 C-52.44822266 58.5909375 -52.93355469 59.385 -53.43359375 60.203125 C-53.87759521 60.93176758 -54.32159668 61.66041016 -54.77905273 62.41113281 C-55.18196533 62.93545898 -55.58487793 63.45978516 -56 64 C-56.66 64 -57.32 64 -58 64 C-58.10570312 64.55429687 -58.21140625 65.10859375 -58.3203125 65.6796875 C-59.13795451 68.47094815 -60.38551556 70.62352134 -61.875 73.125 C-62.49375 74.1665625 -63.1125 75.208125 -63.75 76.28125 C-66.92582864 81.54705411 -70.13384815 86.79354586 -73.35498047 92.03173828 C-73.81275879 92.77665527 -74.27053711 93.52157227 -74.7421875 94.2890625 C-75.1532373 94.95631348 -75.56428711 95.62356445 -75.98779297 96.31103516 C-77.04481367 98.02613763 -77.04481367 98.02613763 -78 100 C-78.66 100 -79.32 100 -80 100 C-80.66 101.98 -81.32 103.96 -82 106 C-82.66 106 -83.32 106 -84 106 C-84 107.32 -84 108.64 -84 110 C-84.66 110 -85.32 110 -86 110 C-86 110.66 -86 111.32 -86 112 C-86.66 112 -87.32 112 -88 112 C-88.1546875 113.175625 -88.1546875 113.175625 -88.3125 114.375 C-89 117 -89 117 -92 119 C-95.0917511 119.21791077 -95.0917511 119.21791077 -98.9465332 119.17602539 C-100.00074966 119.16940887 -100.00074966 119.16940887 -101.07626343 119.16265869 C-102.60190567 119.1528157 -104.12752608 119.13895822 -105.65310097 119.12156868 C-108.89976048 119.08918925 -112.14610011 119.09159935 -115.39289379 119.09185696 C-121.4367309 119.09171326 -127.47975747 119.07657372 -133.52319336 119.00366211 C-137.72878093 118.9542575 -141.93247685 118.94872841 -146.13826561 118.97179985 C-147.73825946 118.97236782 -149.3383464 118.95672431 -150.93801308 118.92436409 C-159.65985539 118.4456681 -159.65985539 118.4456681 -167.24003601 121.91825867 C-168.78951524 124.2238694 -169.88478784 126.46206894 -171 129 C-172.00382954 130.48392025 -173.03576322 131.94956074 -174.10546875 133.38671875 C-174.61400391 134.09763672 -175.12253906 134.80855469 -175.64648438 135.54101562 C-176.68336677 136.98529161 -177.72247132 138.42797456 -178.76367188 139.86914062 C-181.56625043 143.79561403 -183.87831555 147.65344887 -186 152 C-187.64488294 153.68816933 -189.31337542 155.35353315 -191 157 C-191.91808038 158.23375272 -192.81374304 159.48447001 -193.6875 160.75 C-196 164 -196 164 -198 165 C-199.56664454 165.09463005 -201.13728735 165.12630013 -202.70678711 165.12698364 C-203.6995163 165.12980347 -204.69224548 165.13262329 -205.71505737 165.13552856 C-206.80811188 165.13350433 -207.90116638 165.1314801 -209.02734375 165.12939453 C-210.74934494 165.13202301 -210.74934494 165.13202301 -212.50613403 165.13470459 C-216.31660455 165.13912078 -220.12702898 165.13618591 -223.9375 165.1328125 C-226.57543954 165.13348561 -229.21337903 165.13445569 -231.85131836 165.13571167 C-237.38623559 165.13753228 -242.92113948 165.1351299 -248.45605469 165.13037109 C-254.86011924 165.12492868 -261.26415197 165.12669141 -267.66821575 165.1321975 C-273.82236339 165.13727745 -279.97649689 165.1367459 -286.13064575 165.13381577 C-288.75261438 165.13314673 -291.37458382 165.13397409 -293.99655151 165.13629532 C-297.65527527 165.13882323 -301.31393713 165.13497923 -304.97265625 165.12939453 C-306.61223801 165.13243088 -306.61223801 165.13243088 -308.28494263 165.13552856 C-309.77403641 165.13129883 -309.77403641 165.13129883 -311.29321289 165.12698364 C-312.15894424 165.12660662 -313.0246756 165.12622959 -313.91664124 165.12584114 C-316 165 -316 165 -318 164 C-318 163.34 -318 162.68 -318 162 C-318.66 162 -319.32 162 -320 162 C-320 158.7 -320 155.4 -320 152 C-319.34 152 -318.68 152 -318 152 C-318 151.34 -318 150.68 -318 150 C-315.01163236 148.28516175 -312.86621572 147.74881696 -309.43234253 147.74171448 C-308.52100555 147.73488647 -307.60966858 147.72805847 -306.67071533 147.72102356 C-305.18218048 147.72485298 -305.18218048 147.72485298 -303.66357422 147.72875977 C-302.61281708 147.72353302 -301.56205994 147.71830627 -300.47946167 147.71292114 C-298.19867319 147.70268113 -295.91786134 147.69690074 -293.63705063 147.69503975 C-290.03193938 147.69138318 -286.42710496 147.67467763 -282.822052 147.65428162 C-272.57266366 147.59878774 -262.32323499 147.56811317 -252.07373047 147.54370117 C-245.80560605 147.52787057 -239.53767943 147.49770327 -233.26965714 147.45893669 C-230.87657894 147.44725088 -228.48346546 147.44135603 -226.09035873 147.44125557 C-222.75257306 147.44106458 -219.41533743 147.42287776 -216.07763672 147.40063477 C-214.58302917 147.40750053 -214.58302917 147.40750053 -213.05822754 147.414505 C-211.69968155 147.40003326 -211.69968155 147.40003326 -210.31369019 147.38526917 C-209.52429991 147.38325784 -208.73490963 147.38124651 -207.92159843 147.37917423 C-206.97040721 147.19148299 -206.97040721 147.19148299 -206 147 C-205.34 146.01 -204.68 145.02 -204 144 C-203.34 144 -202.68 144 -202 144 C-201.76023437 143.30390625 -201.52046875 142.6078125 -201.2734375 141.890625 C-199.78581253 138.51380759 -197.80487309 135.6996899 -195.625 132.75 C-194.72705493 131.51751656 -193.82995867 130.28441438 -192.93359375 129.05078125 C-192.22178955 128.07359131 -192.22178955 128.07359131 -191.49560547 127.07666016 C-189.92319975 124.89336224 -188.38214388 122.69056438 -186.84765625 120.48046875 C-186.0585083 119.34689941 -186.0585083 119.34689941 -185.25341797 118.19042969 C-184.23198763 116.72086947 -183.21391877 115.24896542 -182.19970703 113.77441406 C-179.41103527 109.78031644 -176.55738763 106.33072222 -173 103 C-172.67 102.67 -172.34 102.34 -172 102 C-169.76070114 101.90563471 -167.5183825 101.88257673 -165.27709961 101.88647461 C-164.5746965 101.88632858 -163.8722934 101.88618256 -163.14860535 101.8860321 C-160.81648722 101.88673128 -158.484448 101.89452383 -156.15234375 101.90234375 C-154.53951562 101.90420792 -152.92668693 101.90563182 -151.31385803 101.90663147 C-147.06084643 101.91045677 -142.80786876 101.92028715 -138.55487061 101.93133545 C-134.2182257 101.94154931 -129.88157533 101.94612904 -125.54492188 101.95117188 C-117.02993231 101.96190941 -108.51497037 101.97898597 -100 102 C-100 101.34 -100 100.68 -100 100 C-99.34 100 -98.68 100 -98 100 C-97.88519287 99.42636719 -97.77038574 98.85273438 -97.65209961 98.26171875 C-96.93897279 95.78833542 -95.93036138 93.99204919 -94.56640625 91.8125 C-93.8403418 90.64074219 -93.8403418 90.64074219 -93.09960938 89.4453125 C-92.59236328 88.63835937 -92.08511719 87.83140625 -91.5625 87 C-90.56237322 85.39672378 -89.56362564 83.7925862 -88.56640625 82.1875 C-88.12240479 81.47980469 -87.67840332 80.77210938 -87.22094727 80.04296875 C-86.04159191 78.0695943 -84.99950868 76.06935208 -84 74 C-83.34 74 -82.68 74 -82 74 C-81.75636719 73.14792969 -81.51273438 72.29585938 -81.26171875 71.41796875 C-79.88596874 67.69109179 -78.00881516 64.5886089 -75.8125 61.3125 C-74.99583521 60.0691802 -74.17943154 58.82568884 -73.36328125 57.58203125 C-72.96061035 56.97311035 -72.55793945 56.36418945 -72.14306641 55.73681641 C-70.56713453 53.34228856 -69.03246775 50.92251928 -67.5 48.5 C-66.94828125 47.63375 -66.3965625 46.7675 -65.828125 45.875 C-64.84115814 44.32284699 -63.8549375 42.77021295 -62.87304688 41.21484375 C-61.66882991 39.30767737 -60.45967015 37.40371104 -59.25 35.5 C-58.87294922 34.89994141 -58.49589844 34.29988281 -58.10742188 33.68164062 C-54.42716122 27.9077791 -54.42716122 27.9077791 -52 26 C-49.62715149 25.63923645 -49.62715149 25.63923645 -46.79418945 25.65942383 C-45.20287956 25.65976372 -45.20287956 25.65976372 -43.579422 25.66011047 C-41.86368233 25.68333626 -41.86368233 25.68333626 -40.11328125 25.70703125 C-38.35506294 25.71339851 -38.35506294 25.71339851 -36.56132507 25.71989441 C-32.81148466 25.73670928 -29.06217843 25.77436768 -25.3125 25.8125 C-22.77279421 25.82754316 -20.23308001 25.8412322 -17.69335938 25.85351562 C-11.46205681 25.88662204 -5.23106656 25.93684972 1 26 C1 25.34 1 24.68 1 24 C0.42636719 23.7525 -0.14726563 23.505 -0.73828125 23.25 C-3.34539758 21.80910669 -5.10539016 20.12508021 -7.1875 18 C-7.88230469 17.29875 -8.57710937 16.5975 -9.29296875 15.875 C-12.16080629 12.72497249 -12.35455657 10.2278286 -12.26953125 5.9765625 C-12 4 -12 4 -10.5 1.5 C-7.02513307 -0.58492016 -3.88794605 -0.90977938 0 0 Z " fill="#EB691C" transform="translate(556,242)"/>
<path d="M0 0 C3.50854372 1.05190976 4.92670163 2.70934658 7.09765625 5.62890625 C7.6900285 8.76137073 7.57296052 11.76797529 7.41015625 14.94140625 C7.38759766 15.77736328 7.36503906 16.61332031 7.34179688 17.47460938 C7.28316235 19.52681774 7.1934884 21.57809827 7.09765625 23.62890625 C7.83242188 23.75007813 8.5671875 23.87125 9.32421875 23.99609375 C16.87893589 25.71984611 23.38548413 30.57711413 28.09765625 36.62890625 C33.30589562 44.95932626 35.91598186 53.80899896 35.09765625 63.62890625 C32.95876736 68.19835069 32.95876736 68.19835069 30.09765625 69.62890625 C25.73455562 70.21851444 22.27807354 70.45519836 18.59765625 67.87890625 C16.6780301 63.71971625 16.67188541 60.03742837 16.421875 55.50390625 C15.81799416 50.14901106 12.99928788 47.51050162 9.28515625 43.87890625 C3.57079263 39.84523781 -3.00510899 38.47738857 -9.90234375 39.62890625 C-16.81226444 42.51941167 -21.83215343 47.65328779 -24.71484375 54.56640625 C-26.38694784 59.61154791 -26.76476016 63.65766873 -24.58984375 68.62890625 C-18.94520342 75.93600914 -9.62170643 79.27664693 -1.33984375 82.62890625 C5.8488541 85.53974881 12.07025128 88.66113959 18.09765625 93.62890625 C18.81050781 94.1703125 19.52335937 94.71171875 20.2578125 95.26953125 C27.32308599 100.92175005 32.54404832 108.61798028 34.09765625 117.62890625 C34.97952579 127.19167911 33.85069988 135.46754959 28.109375 143.36328125 C22.58277634 149.81575223 16.34108703 155.11008018 8.09765625 157.62890625 C6.77765625 157.62890625 5.45765625 157.62890625 4.09765625 157.62890625 C4.1440625 158.87027344 4.19046875 160.11164063 4.23828125 161.390625 C4.27581046 163.03252796 4.31220939 164.67445702 4.34765625 166.31640625 C4.39792969 167.54133789 4.39792969 167.54133789 4.44921875 168.79101562 C4.51627641 172.93182632 4.45612399 175.05639475 2.20703125 178.6484375 C-0.27703061 180.98069558 -1.34995621 181.5429793 -4.71484375 182.06640625 C-8.43660551 181.5555762 -9.59501093 180.37990726 -11.87915039 177.47583008 C-13.70991381 174.17119508 -13.43126443 170.93638743 -13.21484375 167.25390625 C-13.19228516 166.51785156 -13.16972656 165.78179687 -13.14648438 165.0234375 C-13.08807302 163.22436783 -12.99840712 161.42635872 -12.90234375 159.62890625 C-14.18109375 159.58765625 -15.45984375 159.54640625 -16.77734375 159.50390625 C-25.94157737 158.4393014 -32.55672346 152.75094157 -38.28125 145.8515625 C-43.84361744 138.22508763 -45.07304099 129.09021524 -45.265625 119.890625 C-44.81429689 117.08074351 -43.83788572 115.68689126 -41.90234375 113.62890625 C-41.24234375 113.62890625 -40.58234375 113.62890625 -39.90234375 113.62890625 C-39.90234375 112.96890625 -39.90234375 112.30890625 -39.90234375 111.62890625 C-33.27734375 111.37890625 -33.27734375 111.37890625 -29.90234375 113.62890625 C-29.90234375 114.28890625 -29.90234375 114.94890625 -29.90234375 115.62890625 C-29.24234375 115.62890625 -28.58234375 115.62890625 -27.90234375 115.62890625 C-27.7321875 116.71429688 -27.56203125 117.7996875 -27.38671875 118.91796875 C-27.14268336 120.36340914 -26.89784913 121.80871481 -26.65234375 123.25390625 C-26.54277344 123.96675781 -26.43320313 124.67960937 -26.3203125 125.4140625 C-25.25537055 131.52346632 -22.78835967 136.59263223 -17.90234375 140.62890625 C-10.05722469 143.24394594 -1.68996501 142.49595292 5.72265625 139.00390625 C10.14664651 136.45568786 13.26879696 134.56682633 15.09765625 129.62890625 C15.79316202 124.14045856 15.90193594 119.40502389 13.59765625 114.31640625 C5.35804279 105.45882178 -3.36877593 100.96218832 -14.52734375 96.5859375 C-26.67234338 91.69198206 -36.56411983 84.28148715 -42.90234375 72.62890625 C-45.9166139 63.58609579 -44.59105899 52.81259844 -40.51171875 44.37890625 C-34.49178747 34.09242173 -26.84492335 27.35411108 -15.90234375 22.62890625 C-14.24061283 22.27177987 -12.57428596 21.93468092 -10.90234375 21.62890625 C-10.86367187 19.85773438 -10.86367187 19.85773438 -10.82421875 18.05078125 C-10.76792978 16.49345302 -10.71058261 14.93616278 -10.65234375 13.37890625 C-10.63816406 12.60160156 -10.62398437 11.82429687 -10.609375 11.0234375 C-10.44979804 7.28933674 -10.32148658 5.21352413 -8.1015625 2.1171875 C-5.44601221 0.32009219 -3.1746781 0.10729528 0 0 Z " fill="#FBF9F8" transform="translate(253.90234375,120.37109375)"/>
<path d="M0 0 C2.90000514 0.60739327 4.18543046 2.06343542 5.90234375 4.3984375 C7.46399694 7.52174388 7.05032865 10.84507096 7.04951477 14.27400208 C7.05319146 15.09706067 7.05686815 15.92011927 7.06065625 16.76811904 C7.07171951 19.54178935 7.07554138 22.31542223 7.0793457 25.08911133 C7.08560831 27.07141744 7.09225493 29.05372237 7.09925842 31.036026 C7.11668587 36.4327613 7.12722472 41.82948773 7.13546395 47.22624421 C7.14060991 50.59558597 7.14668579 53.96492495 7.15297508 57.33426476 C7.17203114 67.86935666 7.18626197 78.40444153 7.19458705 88.93954736 C7.2043651 101.11335847 7.23069776 113.28698803 7.27108794 125.46073514 C7.30121285 134.86205128 7.31605244 144.26331527 7.31936806 153.66467875 C7.3217225 159.28364811 7.33073414 164.9024236 7.35582924 170.52134132 C7.37905183 175.80645383 7.38336661 181.09124403 7.37306786 186.37639427 C7.37257098 188.3174382 7.3789358 190.25849768 7.3926239 192.19949341 C7.41025386 194.84735898 7.40328092 197.49405666 7.39009094 200.141922 C7.40106019 200.91196511 7.41202943 201.68200822 7.42333108 202.47538596 C7.36400592 207.40043702 6.43159344 209.95014851 2.90234375 213.3984375 C0.09318901 214.80301487 -1.98576159 214.64738907 -5.09765625 214.3984375 C-8.23357195 212.61859345 -8.93868361 211.87535543 -10.09765625 208.3984375 C-10.19996191 205.69720409 -10.24546394 203.02149484 -10.24482727 200.31996155 C-10.24850396 199.48717586 -10.25218065 198.65439016 -10.25596875 197.79636854 C-10.26701353 194.9958313 -10.27085073 192.19533116 -10.2746582 189.39477539 C-10.28092208 187.39099509 -10.28756881 185.38721596 -10.29457092 183.38343811 C-10.31198361 177.93311182 -10.32253269 172.48279431 -10.33077645 167.0324471 C-10.33592437 163.62977333 -10.34200009 160.2271023 -10.34828758 156.82443047 C-10.36733749 146.18522651 -10.38157098 135.54602951 -10.38989955 124.90681177 C-10.39968254 112.61188048 -10.42603062 100.31712872 -10.46640044 88.02226073 C-10.49651314 78.52667333 -10.51136368 69.03113756 -10.51468056 59.53550333 C-10.51703592 53.86013132 -10.52605976 48.18495115 -10.55114174 42.5096302 C-10.57434377 37.17362033 -10.57868749 31.8379297 -10.56838036 26.50188255 C-10.56788302 24.54106716 -10.57426135 22.58023646 -10.5879364 20.61946869 C-10.60553438 17.94722424 -10.59860944 15.27614072 -10.58540344 12.60389709 C-10.60185731 11.4338135 -10.60185731 11.4338135 -10.61864358 10.24009186 C-10.57621389 6.69611363 -10.38252256 4.76913874 -8.19217205 1.9187994 C-5.29187517 -0.18646086 -3.47718079 -0.16835512 0 0 Z " fill="#F68313" transform="translate(577.09765625,331.6015625)"/>
<path d="M0 0 C4.46810643 0.79787615 5.70608399 2.09121685 8.5 5.625 C8.98552198 8.35702707 9.16210518 10.46185028 9.10800171 13.18470764 C9.1129794 13.93753114 9.11795709 14.69035463 9.12308562 15.46599096 C9.13364948 17.98450596 9.10852066 20.50138142 9.08349609 23.01977539 C9.08372282 24.82680918 9.08613739 26.63384384 9.09057617 28.44087219 C9.09628416 33.34588269 9.07098464 38.25029919 9.03990126 43.15519643 C9.01236167 48.28625876 9.01236144 53.41732194 9.00918579 58.54844666 C8.99998154 67.16431966 8.97244712 75.77997069 8.93212891 84.39575195 C8.87530357 96.55020647 8.85297898 108.7045492 8.83684421 120.85911572 C8.82439057 129.2742884 8.80371242 137.68944411 8.7814641 146.1045959 C8.77610129 148.14610638 8.77096483 150.18761746 8.76605177 152.22912908 C8.75175012 158.04818012 8.73232238 163.86716746 8.70457458 169.68617058 C8.69685207 171.45023829 8.69079068 173.21431416 8.68649673 174.97839355 C8.68027992 177.38306908 8.66792684 179.78763516 8.65390015 182.192276 C8.65340239 182.89314852 8.65290463 183.59402104 8.65239179 184.31613213 C8.60271154 190.63882387 8.60271154 190.63882387 7.5 193.625 C4.33142999 195.9720889 1.34275221 196.09554109 -2.5 195.625 C-5.19990662 193.82506226 -7.0418865 192.541227 -8.5 189.625 C-8.60617353 187.21834898 -8.65220459 184.84008171 -8.65390015 182.43278503 C-8.6582824 181.68323038 -8.66266465 180.93367572 -8.6671797 180.16140729 C-8.68059066 177.63649235 -8.68675168 175.11161233 -8.69287109 172.58666992 C-8.70077019 170.78170106 -8.70903902 168.97673379 -8.71765137 167.17176819 C-8.74389163 161.2330171 -8.75918005 155.29425888 -8.7734375 149.35546875 C-8.77879618 147.31312874 -8.78417368 145.27078878 -8.78956985 143.22844887 C-8.81120067 134.73495056 -8.82993865 126.24145418 -8.84119225 117.7479353 C-8.8574397 105.56442301 -8.89063454 93.38122924 -8.94759309 81.19783705 C-8.98625404 72.63727979 -9.00582032 64.07680785 -9.01111281 55.51616555 C-9.01477128 50.40015561 -9.02684516 45.28448522 -9.05921555 40.16856956 C-9.08922886 35.35616124 -9.09563215 30.54429912 -9.08383179 25.73181725 C-9.08361049 23.96491971 -9.09196164 22.19799732 -9.10948563 20.43118668 C-9.1321048 18.01951847 -9.12391795 15.60984314 -9.10800171 13.19816589 C-9.1218838 12.49815985 -9.13576588 11.79815381 -9.15006864 11.07693547 C-9.08839372 7.28688967 -8.56055808 5.70161665 -6.18074989 2.69073963 C-3.5 0.625 -3.5 0.625 0 0 Z " fill="#F57F16" transform="translate(530.5,350.375)"/>
<path d="M0 0 C2.68117046 1.66579056 2.68117046 1.66579056 5 4 C5.61523914 6.72547531 5.61523914 6.72547531 5.60127258 9.90985107 C5.61158257 11.7229351 5.61158257 11.7229351 5.62210083 13.57264709 C5.6044064 14.90878918 5.58623236 16.24492498 5.56762695 17.58105469 C5.56621632 18.99049326 5.56700876 20.39993551 5.56983948 21.80937195 C5.5712745 25.6337152 5.54187187 29.45727488 5.50696969 33.28143597 C5.47571998 37.27858702 5.47277656 41.2757559 5.46684265 45.27301025 C5.45130005 52.84144257 5.41026621 60.40951392 5.3600952 67.97778726 C5.30421448 76.59435185 5.27671848 85.21093366 5.25161803 93.82763433 C5.19935053 111.55196091 5.11140039 129.27595143 5 147 C4.34 147 3.68 147 3 147 C3 147.66 3 148.32 3 149 C-0.4019487 151.09350689 -3.05272412 151.17942163 -7 151 C-7 150.34 -7 149.68 -7 149 C-7.639375 148.71125 -8.27875 148.4225 -8.9375 148.125 C-11 147 -11 147 -12 145 C-12.1041458 143.16163126 -12.14388109 141.3194843 -12.15390015 139.47819519 C-12.16250061 138.30469009 -12.17110107 137.131185 -12.17996216 135.92211914 C-12.18422211 134.62806152 -12.18848206 133.33400391 -12.19287109 132.00073242 C-12.20077148 130.62925508 -12.20904039 129.25777982 -12.21765137 127.88630676 C-12.24387808 123.37604764 -12.25917926 118.8657792 -12.2734375 114.35546875 C-12.27879684 112.80346483 -12.28417435 111.25146097 -12.28956985 109.69945717 C-12.3111992 103.24417901 -12.32993642 96.78890337 -12.34119225 90.33359814 C-12.35743496 81.07881714 -12.39061944 71.82445577 -12.44759309 62.56983298 C-12.48627792 56.0644604 -12.50582316 49.55920012 -12.51111281 43.05371553 C-12.51476823 39.16726938 -12.52680878 35.28127071 -12.55921555 31.39494896 C-12.58927128 27.73814333 -12.59561757 24.0820565 -12.58383179 20.42515373 C-12.58350555 18.4448563 -12.60798781 16.46460339 -12.63320923 14.48446655 C-12.56507871 4.80387014 -12.56507871 4.80387014 -9.68228149 1.69844055 C-6.13014783 -0.55079685 -4.1337182 -0.66434757 0 0 Z " fill="#F27011" transform="translate(401,395)"/>
<path d="M0 0 C2.64781761 1.17429447 2.64781761 1.17429447 5 3 C5.6292057 5.54440212 5.6292057 5.54440212 5.63491821 8.64878845 C5.64901733 9.82511337 5.66311646 11.00143829 5.67764282 12.21340942 C5.66246109 14.1514595 5.66246109 14.1514595 5.64697266 16.12866211 C5.65374725 17.50191916 5.66264949 18.87516712 5.67352295 20.24839783 C5.69634482 23.98000065 5.68746815 27.71091339 5.67162752 31.44252849 C5.65898061 35.34578375 5.67070548 39.24897939 5.67855835 43.15223694 C5.68765958 49.70861431 5.67565594 56.26471026 5.65185547 62.82104492 C5.62465433 70.40171443 5.6334486 77.98171137 5.6609875 85.56236452 C5.68367783 92.06864935 5.68687877 98.57473169 5.67379415 105.0810433 C5.66599764 108.96792311 5.66496294 112.85448684 5.68147659 116.74134636 C5.69592095 120.39663345 5.68590194 124.05105388 5.65700531 127.70624733 C5.6472393 129.6878401 5.66209593 131.66950617 5.67764282 133.65106201 C5.6635437 134.83020676 5.64944458 136.0093515 5.63491821 137.22422791 C5.63303308 138.24905242 5.63114796 139.27387693 5.6292057 140.32975674 C5 143 5 143 2.69859886 145.34536076 C-0.71591267 147.43896009 -3.06581654 147.30856341 -7 147 C-7 146.34 -7 145.68 -7 145 C-7.66 145 -8.32 145 -9 145 C-9 144.34 -9 143.68 -9 143 C-9.66 143 -10.32 143 -11 143 C-11.11675786 124.94579938 -11.20495102 106.89169662 -11.25906086 88.83720016 C-11.28485189 80.45432674 -11.3200193 72.07168778 -11.37719727 63.68896484 C-11.42700507 56.38328657 -11.45928449 49.07777809 -11.47044247 41.77193475 C-11.4769658 37.9027939 -11.49231522 34.03413879 -11.52865028 30.1651535 C-11.56256892 26.5239984 -11.57306172 22.88352945 -11.56553841 19.24223137 C-11.56757156 17.2676659 -11.59448851 15.29317532 -11.62210083 13.31880188 C-11.61522751 12.14373581 -11.60835419 10.96866974 -11.60127258 9.75799561 C-11.60588155 8.73664898 -11.61049051 7.71530235 -11.61523914 6.66300583 C-10.25907169 0.79296023 -5.50288239 -0.80250368 0 0 Z " fill="#F5750D" transform="translate(445,399)"/>
<path d="M0 0 C2.1893158 1.43067932 2.1893158 1.43067932 4 4 C4.6059604 7.30279447 4.55645512 10.57143137 4.53344727 13.92163086 C4.54206284 14.92855484 4.55067841 15.93547882 4.55955505 16.97291565 C4.58227116 20.30381931 4.57546528 23.63388545 4.56640625 26.96484375 C4.5716395 29.27885692 4.57791488 31.59286796 4.58518982 33.90687561 C4.59560464 38.75825025 4.59101709 43.60933177 4.57641602 48.46069336 C4.55923152 54.67975241 4.58271466 60.89788732 4.61790562 67.11684322 C4.63985999 71.89610424 4.63844272 76.67514349 4.6301403 81.45443916 C4.62931963 83.74738134 4.63620514 86.04033962 4.65091133 88.33323479 C4.66831911 91.53906006 4.65384438 94.74321668 4.63110352 97.94897461 C4.64279572 98.89719086 4.65448792 99.8454071 4.66653442 100.82235718 C4.59967098 105.45200538 4.52209596 107.35380699 1.52305603 111.06568909 C0.69044754 111.70401169 -0.14216095 112.34233429 -1 113 C-1.495 113.495 -1.495 113.495 -2 114 C-5.81320366 114.51998232 -7.4859006 114.363248 -10.66467285 112.11721802 C-13.98524602 107.68488377 -13.68922974 104.15269061 -13.61523438 98.74951172 C-13.62078339 97.71972198 -13.6263324 96.68993225 -13.63204956 95.62893677 C-13.6438504 92.22871218 -13.61956807 88.82981865 -13.59375 85.4296875 C-13.59203923 83.06747498 -13.59210424 80.70526057 -13.59387207 78.3430481 C-13.59221866 73.39501764 -13.57351333 68.44744017 -13.54199219 63.49951172 C-13.50227157 57.14930552 -13.49795189 50.79969157 -13.50545502 44.44938469 C-13.5085203 39.57327829 -13.49642057 34.6973057 -13.47932434 29.82123184 C-13.47228181 27.47920699 -13.46917132 25.13716697 -13.47001648 22.79513168 C-13.46822412 19.52704038 -13.44689118 16.25966684 -13.41992188 12.99169922 C-13.42285248 12.01916199 -13.42578308 11.04662476 -13.42880249 10.0446167 C-13.4174527 9.15581818 -13.40610291 8.26701965 -13.39440918 7.35128784 C-13.39068047 6.57886686 -13.38695175 5.80644588 -13.38311005 5.01061821 C-12.8942425 2.44496901 -12.04317308 1.58571532 -10 0 C-6.19426871 -1.2685771 -3.89430952 -0.88817586 0 0 Z " fill="#EB6D21" transform="translate(314,432)"/>
<path d="M0 0 C3.4223141 1.02605693 4.87934126 2.8659803 7.09765625 5.62890625 C7.59209643 8.69691883 7.78315567 11.20767279 7.74462891 14.27124023 C7.7577713 15.55998047 7.7577713 15.55998047 7.7711792 16.87475586 C7.79314656 19.70868767 7.77862892 22.54105292 7.76171875 25.375 C7.76508797 27.34888508 7.76994146 29.32276813 7.7762146 31.29664612 C7.78358258 35.43177052 7.77288386 39.56635449 7.74951172 43.70141602 C7.72104281 48.99561626 7.73741662 54.28854811 7.76737404 59.58270168 C7.7854649 63.65861012 7.77968043 67.73421921 7.76673508 71.8101368 C7.76340505 73.76173109 7.76747395 75.71335277 7.77913284 77.66491508 C7.79186893 80.39639842 7.77242596 83.12584561 7.74462891 85.85717773 C7.75475006 86.65996658 7.76487122 87.46275543 7.77529907 88.28987122 C7.69923969 92.33519818 7.28361987 94.91113575 4.74862671 98.14588928 C2.09765625 100.62890625 2.09765625 100.62890625 -0.96484375 101.12890625 C-4.48025603 100.5305382 -6.86778644 100.0864351 -8.99356079 97.09155273 C-10.34143912 93.43903285 -10.19711469 89.81999178 -10.19287109 85.9765625 C-10.19958832 85.10458221 -10.20630554 84.23260193 -10.21322632 83.334198 C-10.23221705 80.4532094 -10.23613072 77.57245353 -10.23828125 74.69140625 C-10.24470721 72.68888248 -10.25143542 70.68635967 -10.25845337 68.68383789 C-10.27042795 64.48744529 -10.27413388 60.29113504 -10.27294922 56.09472656 C-10.27274574 50.71420445 -10.3000768 45.33420884 -10.33449364 39.95381165 C-10.35671293 35.81886359 -10.36078833 31.6840434 -10.35972977 27.54904175 C-10.36209211 25.56507549 -10.37095114 23.58110604 -10.3863945 21.59719849 C-10.40595885 18.82483813 -10.40025481 16.0536283 -10.38818359 13.28125 C-10.39942261 12.46034882 -10.41066162 11.63944763 -10.42224121 10.79367065 C-10.38279592 7.23426586 -10.21011308 5.06110036 -8.11807251 2.12329102 C-5.45326086 0.32602503 -3.18322787 0.10758424 0 0 Z " fill="#F58010" transform="translate(487.90234375,445.37109375)"/>
<path d="M0 0 C4.1621362 0.66891475 5.61731459 1.50966199 8.5 4.5625 C9.00509732 7.39491728 9.18546969 9.63271149 9.14697266 12.46459961 C9.16011505 13.65311775 9.16011505 13.65311775 9.17352295 14.86564636 C9.19551392 17.48260405 9.180965 20.09786914 9.1640625 22.71484375 C9.16743108 24.53561222 9.17228406 26.3563785 9.17855835 28.17713928 C9.18592952 31.99290377 9.17521779 35.80808288 9.15185547 39.6237793 C9.12338751 44.51121926 9.13975713 49.39728526 9.16971779 54.28467464 C9.18780162 58.04486915 9.18202747 61.80473893 9.16907883 65.56494331 C9.16574675 67.36664556 9.16982495 69.16837743 9.18147659 70.97004509 C9.19420137 73.49115709 9.17478728 76.01005822 9.14697266 78.53100586 C9.15709381 79.27350586 9.16721497 80.01600586 9.17764282 80.78100586 C9.09768391 84.70010618 8.61252777 86.42061396 6.14706421 89.52931213 C3.5 91.5625 3.5 91.5625 0.5 92.125 C-3.15907504 91.43892343 -4.85167676 90.13515686 -7.5 87.5625 C-9.01324929 84.53600142 -8.67356777 81.39258648 -8.69287109 78.07104492 C-8.70104858 77.29849869 -8.70922607 76.52595245 -8.71765137 75.72999573 C-8.74250929 73.16766132 -8.75902223 70.60538232 -8.7734375 68.04296875 C-8.77876118 67.16843866 -8.78408485 66.29390858 -8.78956985 65.39287758 C-8.81630303 60.76412456 -8.83567747 56.13539854 -8.85009766 51.5065918 C-8.86674717 46.72462697 -8.91152661 41.94335112 -8.9624691 37.16164684 C-8.99611853 33.48561304 -9.00767251 29.80974326 -9.01332474 26.13356972 C-9.0200435 24.37089077 -9.03528187 22.60822285 -9.05921555 20.84569359 C-9.09082239 18.37727018 -9.09091138 15.91071116 -9.08349609 13.44213867 C-9.09990143 12.71519806 -9.11630676 11.98825745 -9.13320923 11.23928833 C-9.08566301 7.36907768 -8.59833977 5.68797782 -6.18228149 2.60517883 C-3.5 0.5625 -3.5 0.5625 0 0 Z " fill="#EA691C" transform="translate(264.5,454.4375)"/>
<path d="M0 0 C3.35048755 1.00452234 4.88387104 2.97722946 7.09765625 5.62890625 C7.71238708 8.7848053 7.71238708 8.7848053 7.69702148 12.37524414 C7.7009642 13.0327919 7.70490692 13.69033966 7.70896912 14.36781311 C7.71565336 16.52985145 7.68657937 18.68975205 7.65625 20.8515625 C7.65199693 22.35940644 7.64967099 23.86725695 7.64918518 25.37510681 C7.64302864 28.53007837 7.62037187 31.68433748 7.5847168 34.83911133 C7.5394059 38.8799268 7.52468821 42.92009838 7.52097988 46.96114445 C7.51654822 50.07273183 7.50123965 53.18418456 7.48210335 56.29571342 C7.47323476 57.78562757 7.46649816 59.275556 7.46194267 60.76548958 C7.45288395 62.8478921 7.43048111 64.92971739 7.40405273 67.01196289 C7.38809303 68.78803673 7.38809303 68.78803673 7.37181091 70.59999084 C7.10695951 73.52612193 6.6924623 75.19394149 5.09765625 77.62890625 C1.87971 79.92743929 -1.033329 80.26058213 -4.90234375 79.62890625 C-8.52672332 76.81361445 -9.70008414 75.02212564 -10.36477661 70.44354248 C-10.54957666 66.31708819 -10.57166116 62.21895557 -10.53125 58.08984375 C-10.5320793 56.56100292 -10.53454101 55.03216219 -10.53855896 53.50332642 C-10.54141084 50.3072815 -10.52677327 47.11193978 -10.49926758 43.91601562 C-10.46512681 39.82228239 -10.47122734 35.72980114 -10.48993015 31.63600731 C-10.5005025 28.4823464 -10.4915614 25.32897641 -10.47654533 22.17534256 C-10.4713686 20.66588836 -10.47183917 19.15640372 -10.47809029 17.64695358 C-10.48354813 15.53789721 -10.46315628 13.43062972 -10.43579102 11.32177734 C-10.42959244 10.12297943 -10.42339386 8.92418152 -10.41700745 7.6890564 C-9.37789661 1.51058451 -5.92967026 0.20040635 0 0 Z " fill="#EF7318" transform="translate(354.90234375,466.37109375)"/>
<path d="M0 0 C3.465 1.485 3.465 1.485 7 3 C7 3.66 7 4.32 7 5 C7.598125 5.12375 8.19625 5.2475 8.8125 5.375 C11 6 11 6 14 8 C12.41319051 12.30822886 10.31368394 16.26143059 8.0625 20.25 C7.67715088 20.93513672 7.29180176 21.62027344 6.89477539 22.32617188 C2.27096566 30.43457854 -2.8487183 38.22012035 -8 46 C-11.1827882 44.43226975 -14.21372209 42.71274716 -17.25 40.875 C-18.14203125 40.33617187 -19.0340625 39.79734375 -19.953125 39.2421875 C-20.62859375 38.83226562 -21.3040625 38.42234375 -22 38 C-20.60426134 33.21539326 -18.51554768 29.15312811 -15.9375 24.921875 C-15.54554443 24.26922668 -15.15358887 23.61657837 -14.74975586 22.94415283 C-13.92547991 21.57436636 -13.09836427 20.20628506 -12.26855469 18.83984375 C-10.99771481 16.74623532 -9.73648284 14.64706906 -8.4765625 12.546875 C-7.67243104 11.21320625 -6.86776226 9.87986129 -6.0625 8.546875 C-5.68536865 7.91980652 -5.3082373 7.29273804 -4.91967773 6.64666748 C-3.42282033 4.18789767 -2.0437084 2.0437084 0 0 Z " fill="#DF4D25" transform="translate(167,333)"/>
<path d="M0 0 C0.99 0 1.98 0 3 0 C3 46.2 3 92.4 3 140 C2.01 140 1.02 140 0 140 C0 93.8 0 47.6 0 0 Z " fill="#EE7C33" transform="translate(389,400)"/>
<path d="M0 0 C0.99 0.33 1.98 0.66 3 1 C2.01 1.33 1.02 1.66 0 2 C0 3.32 0 4.64 0 6 C-0.66 6 -1.32 6 -2 6 C-2 6.66 -2 7.32 -2 8 C-2.66 8 -3.32 8 -4 8 C-4 8.66 -4 9.32 -4 10 C-5.65 10.33 -7.3 10.66 -9 11 C-9.66 12.98 -10.32 14.96 -11 17 C-12.65 17.33 -14.3 17.66 -16 18 C-16 20.64 -16 23.28 -16 26 C-16.7425 25.79375 -17.485 25.5875 -18.25 25.375 C-21.37796068 24.94845991 -22.32595741 25.50299325 -25 27 C-17.7651658 16.84286022 -9.42541691 8.14639374 0 0 Z " fill="#D33939" transform="translate(168,110)"/>
<path d="M0 0 C17.16 0 34.32 0 52 0 C52 0.66 52 1.32 52 2 C46.41102567 3.21517231 41.02961852 3.03631242 35.3515625 2.87890625 C34.33903412 2.85529526 33.32650574 2.83168427 32.28329468 2.80735779 C29.06370828 2.73106199 25.84438335 2.6468916 22.625 2.5625 C20.43621052 2.50924518 18.24740845 2.45650503 16.05859375 2.40429688 C10.70556899 2.27549323 5.35273693 2.14023154 0 2 C0 1.34 0 0.68 0 0 Z " fill="#F96309" transform="translate(506,268)"/>
<path d="M0 0 C0.66 0 1.32 0 2 0 C-0.09831378 7.76376098 -4.38864077 16.18823508 -10 22 C-10.66 22 -11.32 22 -12 22 C-12 21.34 -12 20.68 -12 20 C-11.34 20 -10.68 20 -10 20 C-10 18.68 -10 17.36 -10 16 C-9.34 16 -8.68 16 -8 16 C-8 14.02 -8 12.04 -8 10 C-7.34 10 -6.68 10 -6 10 C-6 9.34 -6 8.68 -6 8 C-5.01 7.34 -4.02 6.68 -3 6 C-2.27617533 3.94074861 -2.27617533 3.94074861 -2 2 C-1.34 2 -0.68 2 0 2 C0 1.34 0 0.68 0 0 Z " fill="#E95923" transform="translate(364,264)"/>
<path d="M0 0 C0.66 0 1.32 0 2 0 C2.1875 2.8125 2.1875 2.8125 2 6 C0.5625 7.5625 0.5625 7.5625 -1 9 C-1.72197162 11.60611077 -1.72197162 11.60611077 -2 14 C-3.98 14.66 -5.96 15.32 -8 16 C-6.46197215 10.15549417 -3.5439162 4.87288478 0 0 Z " fill="#D53836" transform="translate(142,138)"/>
<path d="M0 0 C-4.80799379 4.33343856 -9.66477658 8.3320339 -15 12 C-15.33 11.34 -15.66 10.68 -16 10 C-15.34 10 -14.68 10 -14 10 C-14 9.34 -14 8.68 -14 8 C-13.34 8 -12.68 8 -12 8 C-12 7.34 -12 6.68 -12 6 C-11.34 6 -10.68 6 -10 6 C-10 4.68 -10 3.36 -10 2 C-3.375 -1.125 -3.375 -1.125 0 0 Z " fill="#E75E27" transform="translate(342,302)"/>
<path d="M0 0 C0.33 0.99 0.66 1.98 1 3 C0.01 3.33 -0.98 3.66 -2 4 C-2.33 4.66 -2.66 5.32 -3 6 C-4.97522846 7.04808041 -6.97481509 8.0520411 -9 9 C-8.63594751 6.29561004 -8.31857318 5.25593617 -6.15234375 3.515625 C-5.42144531 3.09796875 -4.69054687 2.6803125 -3.9375 2.25 C-3.20402344 1.82203125 -2.47054687 1.3940625 -1.71484375 0.953125 C-1.14894531 0.63859375 -0.58304688 0.3240625 0 0 Z M-12 9 C-11.01 9.33 -10.02 9.66 -9 10 C-9.33 10.66 -9.66 11.32 -10 12 C-10.66 12 -11.32 12 -12 12 C-12 11.01 -12 10.02 -12 9 Z " fill="#D93634" transform="translate(186,98)"/>
<path d="M0 0 C0.84884766 0.54914063 0.84884766 0.54914063 1.71484375 1.109375 C-4.04188086 4.11857196 -7.79818136 5.25680625 -14.28515625 5.109375 C-11.8207606 3.46644457 -9.50724514 2.13310728 -6.84765625 0.859375 C-6.08582031 0.48296875 -5.32398438 0.1065625 -4.5390625 -0.28125 C-2.28515625 -0.890625 -2.28515625 -0.890625 0 0 Z " fill="#D34040" transform="translate(205.28515625,90.890625)"/>
<path d="M0 0 C0.66 0.33 1.32 0.66 2 1 C1.745504 2.48206495 1.47088238 3.96068615 1.1875 5.4375 C1.03667969 6.26121094 0.88585937 7.08492187 0.73046875 7.93359375 C0.48941406 8.61550781 0.24835938 9.29742187 0 10 C-0.99 10.33 -1.98 10.66 -3 11 C-2.44894091 7.0507432 -1.61064629 3.65079826 0 0 Z " fill="#D63F3B" transform="translate(131,157)"/>
<path d="M0 0 C-1.48781815 3.78717347 -3.61988409 5.77407001 -7 8 C-7.99 7.67 -8.98 7.34 -10 7 C-9.09827532 5.82174642 -8.17798498 4.65768423 -7.25 3.5 C-6.73953125 2.8503125 -6.2290625 2.200625 -5.703125 1.53125 C-4 0 -4 0 0 0 Z " fill="#EC7C32" transform="translate(560,284)"/>
<path d="M0 0 C0.33 0 0.66 0 1 0 C1.28571429 7.42857143 1.28571429 7.42857143 -1 11 C-1.66 11 -2.32 11 -3 11 C-3 9.02 -3 7.04 -3 5 C-2.34 5 -1.68 5 -1 5 C-0.67 3.35 -0.34 1.7 0 0 Z " fill="#EA5420" transform="translate(371,245)"/>
<path d="M0 0 C1.32 0 2.64 0 4 0 C4 0.66 4 1.32 4 2 C3.34 2 2.68 2 2 2 C1.34 3.98 0.68 5.96 0 8 C-0.66 7.67 -1.32 7.34 -2 7 C-2 5.35 -2 3.7 -2 2 C-1.34 2 -0.68 2 0 2 C0 1.34 0 0.68 0 0 Z " fill="#EF7022" transform="translate(474,340)"/>
<path d="M0 0 C0.33 1.32 0.66 2.64 1 4 C0.01 4.495 0.01 4.495 -1 5 C-0.34 5.33 0.32 5.66 1 6 C1 6.66 1 7.32 1 8 C-0.98 8 -2.96 8 -5 8 C-3.35 5.36 -1.7 2.72 0 0 Z " fill="#E66B2A" transform="translate(371,360)"/>
<path d="M0 0 C1.32 0 2.64 0 4 0 C4 1.32 4 2.64 4 4 C2.02 4.66 0.04 5.32 -2 6 C-1.34 4.02 -0.68 2.04 0 0 Z " fill="#DC2F2C" transform="translate(136,148)"/>
<path d="M0 0 C0.33 0 0.66 0 1 0 C1 2.64 1 5.28 1 8 C0.34 8 -0.32 8 -1 8 C-1 8.66 -1 9.32 -1 10 C-1.66 10 -2.32 10 -3 10 C-2.01 6.7 -1.02 3.4 0 0 Z " fill="#EEE7DF" transform="translate(373,246)"/>
<path d="M0 0 C0.66 0 1.32 0 2 0 C2 0.66 2 1.32 2 2 C2.99 2.33 3.98 2.66 5 3 C4 4 4 4 1.0625 4.1875 C-2 4 -2 4 -4 2 C-2.68 2 -1.36 2 0 2 C0 1.34 0 0.68 0 0 Z " fill="#E57E40" transform="translate(264,542)"/>
<path d="M0 0 C0.66 0 1.32 0 2 0 C0.25 5.75 0.25 5.75 -2 8 C-2.66 6.68 -3.32 5.36 -4 4 C-3.01 4 -2.02 4 -1 4 C-0.67 2.68 -0.34 1.36 0 0 Z " fill="#E75A2F" transform="translate(149,436)"/>
<path d="M0 0 C0.99 0.66 1.98 1.32 3 2 C3 2.99 3 3.98 3 5 C1.02 5.66 -0.96 6.32 -3 7 C-1.125 2.25 -1.125 2.25 0 0 Z " fill="#DD5633" transform="translate(93,409)"/>
<path d="M0 0 C0.99 0 1.98 0 3 0 C2.125 4.75 2.125 4.75 1 7 C0.34 7 -0.32 7 -1 7 C-0.67 4.69 -0.34 2.38 0 0 Z " fill="#D8453E" transform="translate(125,172)"/>
<path d="M0 0 C1.32 0 2.64 0 4 0 C4 0.66 4 1.32 4 2 C5.65 2.33 7.3 2.66 9 3 C8.01 4.485 8.01 4.485 7 6 C5.83054208 5.19152271 4.66449539 4.37810888 3.5 3.5625 C2.8503125 3.11003906 2.200625 2.65757813 1.53125 2.19140625 C1.0259375 1.79824219 0.520625 1.40507813 0 1 C0 0.67 0 0.34 0 0 Z " fill="#F3E4E2" transform="translate(324,106)"/>
<path d="M0 0 C1.0326802 2.78823655 1.04509293 3.8677274 0.0625 6.75 C-0.288125 7.4925 -0.63875 8.235 -1 9 C-1.99 9 -2.98 9 -4 9 C-2.80100302 5.9168649 -1.52299523 2.93720508 0 0 Z " fill="#DA5033" transform="translate(99,399)"/>
<path d="M0 0 C0.33 0.66 0.66 1.32 1 2 C1.66 2 2.32 2 3 2 C3 2.66 3 3.32 3 4 C2.34 4 1.68 4 1 4 C0.67 4.99 0.34 5.98 0 7 C-0.99 6.34 -1.98 5.68 -3 5 C-2.01 3.35 -1.02 1.7 0 0 Z " fill="#EC702A" transform="translate(465,328)"/>
<path d="M0 0 C0.33 1.32 0.66 2.64 1 4 C-1.97 6.475 -1.97 6.475 -5 9 C-3.7508258 5.54074837 -2.32472205 2.85306797 0 0 Z " fill="#F0E4D7" transform="translate(357,281)"/>
<path d="M0 0 C0.33 0 0.66 0 1 0 C1.33 3.96 1.66 7.92 2 12 C1.67 11.34 1.34 10.68 1 10 C0.34 10 -0.32 10 -1 10 C-0.67 6.7 -0.34 3.4 0 0 Z " fill="#E8DFDD" transform="translate(121,230)"/>
<path d="M0 0 C0.66 0.33 1.32 0.66 2 1 C2 1.66 2 2.32 2 3 C1.34 3 0.68 3 0 3 C0 4.32 0 5.64 0 7 C-0.99 7.33 -1.98 7.66 -3 8 C-1.125 1.125 -1.125 1.125 0 0 Z " fill="#DC613E" transform="translate(43,494)"/>
<path d="M0 0 C0 0.33 0 0.66 0 1 C-1.65 1 -3.3 1 -5 1 C-5 2.32 -5 3.64 -5 5 C-5.66 5 -6.32 5 -7 5 C-7 4.34 -7 3.68 -7 3 C-7.66 2.67 -8.32 2.34 -9 2 C-5.5647952 -0.29013653 -4.014669 -0.17842973 0 0 Z " fill="#DD7B3B" transform="translate(445,399)"/>
<path d="M0 0 C1.32 0 2.64 0 4 0 C4 0.66 4 1.32 4 2 C3.34 2 2.68 2 2 2 C2 3.32 2 4.64 2 6 C1.01 5.67 0.02 5.34 -1 5 C-0.67 3.35 -0.34 1.7 0 0 Z " fill="#E7481D" transform="translate(100,398)"/>
<path d="M0 0 C0.33 0 0.66 0 1 0 C1 2.64 1 5.28 1 8 C0.34 8 -0.32 8 -1 8 C-1 7.34 -1 6.68 -1 6 C-1.66 5.67 -2.32 5.34 -3 5 C-2.03114628 3.31503702 -1.03013277 1.64821244 0 0 Z " fill="#DA5436" transform="translate(157,348)"/>
<path d="M0 0 C1.32 0.33 2.64 0.66 4 1 C1.69 2.65 -0.62 4.3 -3 6 C-3.33 5.34 -3.66 4.68 -4 4 C-3.34 4 -2.68 4 -2 4 C-2 3.34 -2 2.68 -2 2 C-1.34 2 -0.68 2 0 2 C0 1.34 0 0.68 0 0 Z " fill="#E2632A" transform="translate(322,314)"/>
</svg>
